<svg xmlns="http://www.w3.org/2000/svg" width="802.027" height="590.915" viewBox="0 0 802.027 590.915">
  <g id="undraw_researching_22gp_2_" data-name="undraw_researching_22gp (2)" transform="translate(0 -0.001)">
    <rect id="Rectangle_40" data-name="Rectangle 40" width="337.121" height="9.889" transform="translate(464.906 218.808)" fill="#e6e6e6"/>
    <rect id="Rectangle_41" data-name="Rectangle 41" width="85.404" height="85.404" transform="translate(492.774 136.101)" fill="#e6e6e6"/>
    <rect id="Rectangle_42" data-name="Rectangle 42" width="51.243" height="51.243" transform="translate(509.855 153.182)" fill="#ccc"/>
    <rect id="Rectangle_43" data-name="Rectangle 43" width="21.576" height="85.404" transform="translate(684.259 136.101)" fill="#e6e6e6"/>
    <rect id="Rectangle_44" data-name="Rectangle 44" width="21.576" height="9.889" transform="translate(684.259 149.586)" fill="#ccc"/>
    <rect id="Rectangle_45" data-name="Rectangle 45" width="21.576" height="9.889" transform="translate(684.259 192.737)" fill="#ccc"/>
    <rect id="Rectangle_46" data-name="Rectangle 46" width="21.576" height="85.404" transform="translate(650.997 136.101)" fill="#e6e6e6"/>
    <rect id="Rectangle_47" data-name="Rectangle 47" width="21.576" height="9.889" transform="translate(650.997 149.586)" fill="#ccc"/>
    <rect id="Rectangle_48" data-name="Rectangle 48" width="21.576" height="9.889" transform="translate(650.997 192.737)" fill="#ccc"/>
    <rect id="Rectangle_49" data-name="Rectangle 49" width="21.576" height="85.404" transform="matrix(0.896, -0.444, 0.444, 0.896, 705.089, 145.322)" fill="#e6e6e6"/>
    <rect id="Rectangle_50" data-name="Rectangle 50" width="21.576" height="9.889" transform="matrix(0.896, -0.444, 0.444, 0.896, 711.072, 157.406)" fill="#ccc"/>
    <rect id="Rectangle_51" data-name="Rectangle 51" width="21.576" height="9.889" transform="matrix(0.896, -0.444, 0.444, 0.896, 730.218, 196.078)" fill="#ccc"/>
    <path id="Path_31" data-name="Path 31" d="M524.688,170.382,535.554,189.2l10.865,18.819H502.958L513.823,189.2Z" fill="#e6e6e6"/>
    <path id="Path_32" data-name="Path 32" d="M543.567,173.978,554.432,192.8,565.3,211.616H521.837L532.7,192.8Z" fill="#e6e6e6"/>
    <circle id="Ellipse_8" data-name="Ellipse 8" cx="6.293" cy="6.293" r="6.293" transform="translate(544.916 155.878)" fill="#e6e6e6"/>
    <rect id="Rectangle_52" data-name="Rectangle 52" width="337.121" height="9.889" transform="translate(802.027 92.949) rotate(180)" fill="#e6e6e6"/>
    <rect id="Rectangle_53" data-name="Rectangle 53" width="85.404" height="85.404" transform="translate(774.158 85.757) rotate(180)" fill="#e6e6e6"/>
    <rect id="Rectangle_54" data-name="Rectangle 54" width="51.243" height="51.243" transform="translate(757.078 68.676) rotate(180)" fill="#ccc"/>
    <rect id="Rectangle_55" data-name="Rectangle 55" width="21.576" height="85.404" transform="translate(582.673 85.757) rotate(180)" fill="#e6e6e6"/>
    <rect id="Rectangle_56" data-name="Rectangle 56" width="21.576" height="9.889" transform="translate(582.673 23.727) rotate(180)" fill="#ccc"/>
    <rect id="Rectangle_57" data-name="Rectangle 57" width="21.576" height="9.889" transform="translate(582.673 66.879) rotate(180)" fill="#ccc"/>
    <rect id="Rectangle_58" data-name="Rectangle 58" width="21.576" height="85.404" transform="translate(615.936 85.757) rotate(180)" fill="#e6e6e6"/>
    <rect id="Rectangle_59" data-name="Rectangle 59" width="21.576" height="9.889" transform="translate(615.936 23.727) rotate(180)" fill="#ccc"/>
    <rect id="Rectangle_60" data-name="Rectangle 60" width="21.576" height="9.889" transform="translate(615.936 66.879) rotate(180)" fill="#ccc"/>
    <rect id="Rectangle_61" data-name="Rectangle 61" width="21.576" height="85.404" transform="matrix(-0.896, -0.444, 0.444, -0.896, 523.95, 86.111)" fill="#e6e6e6"/>
    <rect id="Rectangle_62" data-name="Rectangle 62" width="21.576" height="9.889" transform="matrix(-0.896, -0.444, 0.444, -0.896, 551.472, 30.52)" fill="#ccc"/>
    <rect id="Rectangle_63" data-name="Rectangle 63" width="21.576" height="9.889" transform="matrix(-0.896, -0.444, 0.444, -0.896, 532.326, 69.193)" fill="#ccc"/>
    <path id="Path_33" data-name="Path 33" d="M742.244,34.634,731.379,53.453,720.514,72.272h43.461L753.109,53.453Z" fill="#e6e6e6"/>
    <path id="Path_34" data-name="Path 34" d="M723.365,38.23,712.5,57.049,701.635,75.868H745.1L734.231,57.049Z" fill="#e6e6e6"/>
    <circle id="Ellipse_9" data-name="Ellipse 9" cx="6.293" cy="6.293" r="6.293" transform="translate(709.431 20.131)" fill="#e6e6e6"/>
    <rect id="Rectangle_64" data-name="Rectangle 64" width="337.121" height="9.889" transform="translate(802.027 364.445) rotate(180)" fill="#e6e6e6"/>
    <rect id="Rectangle_65" data-name="Rectangle 65" width="85.404" height="85.404" transform="translate(774.158 357.253) rotate(180)" fill="#e6e6e6"/>
    <rect id="Rectangle_66" data-name="Rectangle 66" width="51.243" height="51.243" transform="translate(757.078 340.172) rotate(180)" fill="#ccc"/>
    <rect id="Rectangle_67" data-name="Rectangle 67" width="21.576" height="85.404" transform="translate(582.673 357.253) rotate(180)" fill="#e6e6e6"/>
    <rect id="Rectangle_68" data-name="Rectangle 68" width="21.576" height="9.889" transform="translate(582.673 295.222) rotate(180)" fill="#ccc"/>
    <rect id="Rectangle_69" data-name="Rectangle 69" width="21.576" height="9.889" transform="translate(582.673 338.373) rotate(180)" fill="#ccc"/>
    <rect id="Rectangle_70" data-name="Rectangle 70" width="21.576" height="85.404" transform="translate(615.936 357.253) rotate(180)" fill="#e6e6e6"/>
    <rect id="Rectangle_71" data-name="Rectangle 71" width="21.576" height="9.889" transform="translate(615.936 295.222) rotate(180)" fill="#ccc"/>
    <rect id="Rectangle_72" data-name="Rectangle 72" width="21.576" height="9.889" transform="translate(615.936 338.373) rotate(180)" fill="#ccc"/>
    <rect id="Rectangle_73" data-name="Rectangle 73" width="21.576" height="85.404" transform="matrix(-0.896, -0.444, 0.444, -0.896, 523.95, 357.606)" fill="#e6e6e6"/>
    <rect id="Rectangle_74" data-name="Rectangle 74" width="21.576" height="9.889" transform="matrix(-0.896, -0.444, 0.444, -0.896, 551.472, 302.016)" fill="#ccc"/>
    <rect id="Rectangle_75" data-name="Rectangle 75" width="21.576" height="9.889" transform="matrix(-0.896, -0.444, 0.444, -0.896, 532.326, 340.687)" fill="#ccc"/>
    <path id="Path_35" data-name="Path 35" d="M742.244,306.129l-10.865,18.819-10.865,18.82h43.461l-10.866-18.82Z" fill="#e6e6e6"/>
    <path id="Path_36" data-name="Path 36" d="M723.365,309.725,712.5,328.544l-10.865,18.82H745.1l-10.865-18.82Z" fill="#e6e6e6"/>
    <circle id="Ellipse_10" data-name="Ellipse 10" cx="6.293" cy="6.293" r="6.293" transform="translate(709.431 291.626)" fill="#e6e6e6"/>
    <ellipse id="Ellipse_11" data-name="Ellipse 11" cx="397.129" cy="28.205" rx="397.129" ry="28.205" transform="translate(0 534.506)" fill="#f3e6ff"/>
    <path id="Path_37" data-name="Path 37" d="M906.373,733.048c-64.755-11.525-135.567-9.609-209.847,0,33.855-28.581,63.075-57.163,29.219-85.744,66.039,13.624,75.289,12.245,148.752,0C857.459,675.885,889.334,704.467,906.373,733.048Z" transform="translate(-198.987 -154.542)" fill="#b383e1"/>
    <path id="Path_38" data-name="Path 38" d="M906.373,733.048c-64.755-11.525-135.567-9.609-209.847,0,33.855-28.581,63.075-57.163,29.219-85.744,66.039,13.624,75.289,12.245,148.752,0C857.459,675.885,889.334,704.467,906.373,733.048Z" transform="translate(-198.987 -154.542)" opacity="0.2"/>
    <path id="Path_39" data-name="Path 39" d="M890.578,720.854c-55.007-9.2-115.159-7.67-178.257,0,28.759-22.814,53.58-45.628,24.821-68.442,56.1,10.875,63.955,9.774,126.359,0C849.027,675.226,876.1,698.04,890.578,720.854Z" transform="translate(-198.987 -154.542)" fill="#b383e1"/>
    <circle id="Ellipse_12" data-name="Ellipse 12" cx="29.309" cy="29.309" r="29.309" transform="translate(641.331 470.935)" fill="#2f2e41"/>
    <path id="Path_40" data-name="Path 40" d="M537.591,466.249l20.308,3.385,10.154,29.333L538.72,517.019l-33.847-50.77h32.718Z" fill="#a0616a"/>
    <circle id="Ellipse_13" data-name="Ellipse 13" cx="47.385" cy="47.385" r="47.385" transform="translate(547.745 416.608)" fill="#a0616a"/>
    <path id="Path_41" data-name="Path 41" d="M532.372,445.919S417.3,458.329,396.987,456.073s-29.333-4.513-29.333-4.513-13.539,18.051-6.769,25.949a48.822,48.822,0,0,0,13.539,11.282s12.41-3.385,21.436,0S496.27,506.842,512.064,493.3,532.372,445.919,532.372,445.919Z" transform="translate(-198.987 -154.542)" fill="#2f2e41"/>
    <path id="Path_42" data-name="Path 42" d="M540.27,697.509S464.68,676.073,451.142,581.3v-9.026s-14.957,26.238-20.309,31.59c-6.205,6.205-28.205,62.052-27.077,67.693s0,7.9,0,7.9l-32.718-3.385V665.919s17.487-52.462,18.615-64.872,43.436-98.718,43.436-98.718,15.795-32.718,42.872,0,29.333,55.282,29.333,55.282L540.269,625.3Z" transform="translate(-198.987 -154.542)" fill="#2f2e41"/>
    <path id="Path_43" data-name="Path 43" d="M371.038,448.175l-36.1-12.41s-33.846-24.821-25.949,0,44,78.975,54.154,73.334,22.366-19.643,19.644-21.668S362.013,470.739,371.038,448.175Z" transform="translate(-198.987 -154.542)" fill="#2f2e41"/>
    <path id="Path_44" data-name="Path 44" d="M375.4,659.259l-29.144,14.233s-35.244,5.422-15.589,15.589,73.876,21.011,76.587,11.522,1.635-25.236-1.216-24.818S383.535,678.236,375.4,659.259Z" transform="translate(-198.987 -154.542)" fill="#2f2e41"/>
    <path id="Path_45" data-name="Path 45" d="M525.6,623.048s-14.667,63.18,10.154,76.718,198.565,15.795,212.1-9.026,6.769-24.821,6.769-24.821l-36.1-40.615,29.333-2.256s0-9.026-10.154-10.154-41.744-12.41-68.821-4.513-42.872-15.795-42.872-15.795Z" transform="translate(-198.987 -154.542)" fill="#575a89"/>
    <path id="Path_46" data-name="Path 46" d="M307.437,271.069l-19.18,104.924,132-15.8,23.692-94.77Z" fill="#3f3d56"/>
    <path id="Path_47" data-name="Path 47" d="M311.386,275.018l-15.795,93.641,120.154-14.1,23.128-85.18Z" fill="#fff"/>
    <path id="Path_48" data-name="Path 48" d="M292.77,377.121l-4.513-1.128L286,380.505l36.1,100.411,3.395-1.3,1.117-6.6Z" fill="#b3b3b3"/>
    <path id="Path_49" data-name="Path 49" d="M288.257,374.864l36.1,104.924L460.873,459.48,420.258,360.2Z" fill="#d0cde1"/>
    <path id="Path_50" data-name="Path 50" d="M306.309,371.48v5.641l100.41-11.282-1.128-5.641Z" fill="#3f3d56"/>
    <path id="Path_51" data-name="Path 51" d="M308.565,382.762l15.795,44,102.667-12.41-18.051-41.744Z" fill="#3f3d56"/>
    <path id="Path_52" data-name="Path 52" d="M636.167,599.355l-3.385-9.026s-25.949-45.128-39.487-36.1S621.5,607.252,621.5,607.252h13.539Z" transform="translate(-198.987 -154.542)" fill="#a0616a"/>
    <path id="Path_53" data-name="Path 53" d="M550.424,606.124l-3.385-13.539s-9.026-41.744,6.769-39.487,20.308,41.744,20.308,41.744l-1.128,9.026Z" transform="translate(-198.987 -154.542)" fill="#a0616a"/>
    <path id="Path_54" data-name="Path 54" d="M577.5,600.483s-29.333-4.513-30.462,2.256-6.769,108.308,21.436,111.693,168.1,18.051,153.436-16.923-37.231-30.462-37.231-30.462l-95.9,10.154Z" transform="translate(-198.987 -154.542)" fill="#575a89"/>
    <path id="Path_55" data-name="Path 55" d="M467.078,458.916l-29.9-20.872-19.744,15.231,24.821,27.077Z" fill="#575a89"/>
    <path id="Path_56" data-name="Path 56" d="M386.976,479.224l4.512,42.872,77.847-4.513-67.693-1.128Z" opacity="0.2"/>
    <circle id="Ellipse_14" data-name="Ellipse 14" cx="56.41" cy="56.41" r="56.41" transform="translate(562.111 416.193)" fill="#2f2e41"/>
    <path id="Path_57" data-name="Path 57" d="M328.309,307.736l69.949-2.435,6.769-25.77-72.205,2.179Z" fill="#b383e1"/>
    <path id="Path_58" data-name="Path 58" d="M310.258,322.4l106.051-3.385,1.128-4.513-106.051,3.734Z" fill="#e6e6e6"/>
    <path id="Path_59" data-name="Path 59" d="M308,333.685,414.053,330.3l1.128-4.513-106.052,3.734Z" fill="#e6e6e6"/>
    <path id="Path_60" data-name="Path 60" d="M306.873,342.71l106.051-3.384,1.129-4.513L308,338.546Z" fill="#e6e6e6"/>
  </g>
</svg>
